#!OML:ASF I:\Actors\actors\Patient Classification 1\Patient 1\Session 1\Subject1.ASF
:FULLY-SPECIFIED
:DEGREES
956
root 0.610825 17.6637 8.72679 20.1163 4.61127 -7.47064
lowerback 10.2031 2.14864 9.0908
upperback -7.5414 5.59247 8.69648
thorax -14.3783 2.32979 3.44614
lowerneck -3.09477 -14.2472 -10.1951
upperneck 4.71626 -19.071 8.52943
head 3.68245 -9.40664 3.07565
rclavicle -5.56597e-015 4.77083e-014
rhumerus 47.3253 -31.5107 -46.6339
rradius 100.635
rwrist -57.8128
rhand 30.5418 -19.1294
rfingers 7.12502
rthumb 54.1934 -37.8359
lclavicle -5.56597e-015 4.77083e-014
lhumerus -42.2791 -74.6362 110.542
lradius 106.397
lwrist 21.0638
lhand -15.5557 -18.5775
lfingers 7.12502
lthumb 10.6287 11.1337
rfemur -14.4344 26.2718 16.3955
rtibia 1.08977
rfoot -16.5149 -36.7454
rtoes 14.2177
lfemur -14.837 -55.1935 2.05907
ltibia -4.39678
lfoot -31.2051 61.0263
ltoes 18.4508
957
root 0.609532 17.6632 8.72656 20.1443 4.66702 -7.46738
lowerback 10.1631 2.15579 9.11192
upperback -7.5705 5.60308 8.69019
thorax -14.3861 2.33217 3.42738
lowerneck -3.08987 -14.1519 -10.1093
upperneck 4.7337 -18.9386 8.40063
head 3.65424 -9.34412 3.04125
rclavicle 4.69132e-014 5.08889e-014
rhumerus 47.2396 -31.3042 -45.9353
rradius 101.16
rwrist -57.5166
rhand 25.0553 -20.6507
rfingers 7.12502
rthumb 49.212 -42.2775
lclavicle 4.69132e-014 5.08889e-014
lhumerus -42.203 -74.5552 110.487
lradius 106.375
lwrist 20.9518
lhand -15.4665 -18.5977
lfingers 7.12502
lthumb 10.7148 11.1091
rfemur -14.4486 26.3649 16.3785
rtibia 1.0713
rfoot -16.6957 -36.8208
rtoes 14.5361
lfemur -14.9413 -55.2373 2.16368
ltibia -4.39414
lfoot -31.1351 61.0881
ltoes 18.2928
958
root 0.607993 17.6638 8.72722 20.1574 4.79726 -7.47965
lowerback 10.0987 2.13724 9.174
upperback -7.5856 5.58094 8.69757
thorax -14.3598 2.3171 3.40887
lowerneck -3.33421 -14.2281 -10.1074
upperneck 4.90689 -19.019 8.24807
head 3.73738 -9.3804 2.96556
rclavicle 1.82882e-014 -4.45278e-014
rhumerus 47.1685 -31.153 -45.2277
rradius 101.442
rwrist -57.4405
rhand 20.8332 -22.1041
rfingers 7.12502
rthumb 45.3104 -45.4803
lclavicle 1.82882e-014 -4.45278e-014
lhumerus -42.1058 -74.4906 110.403
lradius 106.341
lwrist 20.9001
lhand -15.6149 -18.7466
lfingers 7.12502
lthumb 10.5716 10.9675
rfemur -14.4314 26.5245 16.388
rtibia 1.03526
rfoot -16.959 -36.9994
rtoes 14.9799
lfemur -15.0906 -55.3416 2.34526
ltibia -4.3775
lfoot -31.2044 61.1122
ltoes 18.342
959
root 0.606241 17.6651 8.72967 20.1445 4.97282 -7.53417
lowerback 10.0553 2.08825 9.28784
upperback -7.61351 5.53172 8.7094
thorax -14.3594 2.28367 3.37325
lowerneck -3.65487 -14.3718 -10.1894
upperneck 5.21106 -19.1909 8.1475
head 3.89367 -9.45819 2.89477
rclavicle 2.78299e-014 1.59028e-014
rhumerus 47.1201 -31.0509 -44.5519
rradius 101.457
rwrist -57.517
rhand 18.2448 -23.2192
rfingers 7.12502
rthumb 42.8966 -47.5016
lclavicle 2.78299e-014 1.59028e-014
lhumerus -42.1772 -74.4074 110.408
lradius 106.317
lwrist 20.8747
lhand -15.8499 -18.8402
lfingers 7.12502
lthumb 10.345 10.8853
rfemur -14.3817 26.686 16.472
rtibia 1.00259
rfoot -17.1794 -37.241
rtoes 15.3884
lfemur -15.2353 -55.4761 2.58697
ltibia -4.35747
lfoot -30.9807 61.1836
ltoes 17.9979
960
root 0.604378 17.6656 8.73297 20.1393 5.10504 -7.53979
lowerback 10.0214 2.03768 9.34303
upperback -7.65674 5.46925 8.68195
thorax -14.3826 2.24618 3.32814
lowerneck -3.74829 -14.3979 -10.2467
upperneck 5.38229 -19.2269 8.16568
head 3.9713 -9.47211 2.88957
rclavicle -1.66979e-014 9.54166e-015
rhumerus 47.0098 -30.9854 -43.7788
rradius 101.287
rwrist -57.1337
rhand 16.5914 -23.7518
rfingers 7.12502
rthumb 41.3475 -48.5568
lclavicle -1.66979e-014 9.54166e-015
lhumerus -42.3908 -74.2848 110.462
lradius 106.357
lwrist 20.8587
lhand -15.9533 -18.8326
lfingers 7.12502
lthumb 10.2452 10.8979
rfemur -14.337 26.7913 16.5051
rtibia 0.986003
rfoot -17.3258 -37.4235
rtoes 15.7434
lfemur -15.3417 -55.5927 2.73158
ltibia -4.36067
lfoot -30.5924 61.3044
ltoes 17.3916
961
root 0.603597 17.6657 8.73505 20.1364 5.17512 -7.49999
lowerback 10.017 2.00863 9.37031
upperback -7.71561 5.43281 8.61081
thorax -14.4397 2.21919 3.24271
lowerneck -3.5686 -14.3168 -10.3347
upperneck 5.38748 -19.1434 8.33477
head 3.96239 -9.43162 2.96958
rclavicle 3.93594e-014 -4.45278e-014
rhumerus 46.653 -30.9186 -42.7436
rradius 101.124
rwrist -56.3642
rhand 15.4312 -24.004
rfingers 7.12502
rthumb 40.2574 -49.1519
lclavicle 3.93594e-014 -4.45278e-014
lhumerus -42.809 -74.1704 110.698
lradius 106.456
lwrist 20.9085
lhand -16.0023 -18.7461
lfingers 7.12502
lthumb 10.1979 10.9867
rfemur -14.3088 26.7276 16.496
rtibia 1.01358
rfoot -17.3552 -37.4096
rtoes 15.7498
lfemur -15.3669 -55.6841 2.73394
ltibia -4.37583
lfoot -30.6967 61.3176
ltoes 17.429
962
root 0.602094 17.6663 8.73662 20.1062 5.22354 -7.50916
lowerback 10.047 1.9823 9.44108
upperback -7.76817 5.4112 8.53575
thorax -14.5075 2.19386 3.12473
lowerneck -3.49537 -14.2541 -10.3538
upperneck 5.50541 -19.0737 8.35149
head 3.98403 -9.39807 2.98459
rclavicle -7.55382e-015 2.8625e-014
rhumerus 46.1334 -30.8242 -41.5107
rradius 101.013
rwrist -55.811
rhand 14.5086 -24.2934
rfingers 7.12502
rthumb 39.3889 -49.701
lclavicle -7.55382e-015 2.8625e-014
lhumerus -43.3032 -74.0415 110.988
lradius 106.557
lwrist 21.0103
lhand -16.021 -18.7643
lfingers 7.12502
lthumb 10.1799 10.9694
rfemur -14.2612 26.6422 16.5603
rtibia 1.0491
rfoot -17.3553 -37.3484
rtoes 15.671
lfemur -15.3347 -55.7494 2.73519
ltibia -4.37748
lfoot -30.8037 61.3388
ltoes 17.5637
